# xmcd
#
# Track frame offsets:
#	150
#	23692
#	43400
#	64172
#	83365
#	107297
#	128755
#	153152
#	173285
#	193837
#	214747
#
# Disc length: 3163 seconds
#
# Revision: 0
# Processed by: cddbd v1.5.1PL0 Copyright (c) Steve Scherf et al.
# Submitted via: dBpowerAMP V4.0
#
DISCID=800c590b
DTITLE=Gary Taylor - Under The Nightlight
DYEAR=2001
DGENRE=R&B
TTITLE0=The Nightlight
TTITLE1=Gotta Be A Way
TTITLE2=Restore My Faith
TTITLE3=Keep An Open Heart
TTITLE4=Take Me Through
TTITLE5=About The Real
TTITLE6=All Or Nothing At All
TTITLE7=How Was I To Know
TTITLE8=Erotica
TTITLE9=Flirting With An Angel
TTITLE10=The Nightlight (Instrumental)
EXTD=
EXTT0=
EXTT1=
EXTT2=
EXTT3=
EXTT4=
EXTT5=
EXTT6=
EXTT7=
EXTT8=
EXTT9=
EXTT10=
PLAYORDER=
